<svg fill="#ffffff" version="1.1" id="Capa_1" xmlns="http://www.w3.org/2000/svg" xmlns:xlink="http://www.w3.org/1999/xlink" width="64px" height="64px" viewBox="-62.22 -62.22 373.30 373.30" xml:space="preserve" stroke="#ffffff" stroke-width="0.00248862"><g id="SVGRepo_bgCarrier" stroke-width="0"></g><g id="SVGRepo_tracerCarrier" stroke-linecap="round" stroke-linejoin="round" stroke="#CCCCCC" stroke-width="5.474964"></g><g id="SVGRepo_iconCarrier"> <g> <g> <path d="M31.87,63.729h185.125c17.576,0,31.861-14.292,31.861-31.864C248.856,14.31,234.571,0,216.995,0H31.87 C14.297,0,0.006,14.303,0.006,31.865C0.012,49.438,14.297,63.729,31.87,63.729z M27.006,15.606h32.522v32.522H27.006V15.606z"></path> <path d="M216.995,185.127H31.87c-17.573,0-31.864,14.292-31.864,31.868c0,17.552,14.292,31.867,31.864,31.867h185.125 c17.576,0,31.861-14.304,31.861-31.867C248.856,199.431,234.565,185.127,216.995,185.127z M59.528,229.329H27.006v-32.521h32.522 V229.329z"></path> <path d="M216.995,92.573H31.87c-17.573,0-31.864,14.295-31.864,31.858c0,17.57,14.292,31.868,31.864,31.868h185.125 c17.576,0,31.861-14.298,31.861-31.868C248.856,106.868,234.565,92.573,216.995,92.573z M59.528,140.686H27.006v-32.51h32.522 V140.686z"></path> </g> </g> </g></svg>