<svg fill="#0096db" version="1.1" id="Capa_1" xmlns="http://www.w3.org/2000/svg" xmlns:xlink="http://www.w3.org/1999/xlink" viewBox="-45.4 -45.4 544.80 544.80" xml:space="preserve" stroke="#0096db"><g id="SVGRepo_bgCarrier" stroke-width="0"><path transform="translate(-45.4, -45.4), scale(34.05)" fill="#7ed0ec" d="M9.166.33a2.25 2.25 0 00-2.332 0l-5.25 3.182A2.25 2.25 0 00.5 5.436v5.128a2.25 2.25 0 001.084 1.924l5.25 3.182a2.25 2.25 0 002.332 0l5.25-3.182a2.25 2.25 0 001.084-1.924V5.436a2.25 2.25 0 00-1.084-1.924L9.166.33z" strokewidth="0"></path></g><g id="SVGRepo_tracerCarrier" stroke-linecap="round" stroke-linejoin="round" stroke="#ededed" stroke-width="90.8"> <g> <g> <path d="M228.062,154.507h-34.938v65.631h34.938c18.094,0,32.814-14.72,32.814-32.814 C260.877,169.23,246.156,154.507,228.062,154.507z"></path> <path d="M0,0v454h454V0H0z M228.062,279.648h-34.938v79.398h-59.512V94.952l94.451,0.043c50.908,0,92.325,41.418,92.325,92.328 C320.388,238.232,278.971,279.648,228.062,279.648z"></path> </g> </g> </g><g id="SVGRepo_iconCarrier"> <g> <g> <path d="M228.062,154.507h-34.938v65.631h34.938c18.094,0,32.814-14.72,32.814-32.814 C260.877,169.23,246.156,154.507,228.062,154.507z"></path> <path d="M0,0v454h454V0H0z M228.062,279.648h-34.938v79.398h-59.512V94.952l94.451,0.043c50.908,0,92.325,41.418,92.325,92.328 C320.388,238.232,278.971,279.648,228.062,279.648z"></path> </g> </g> </g></svg>