<svg fill="#375aff" version="1.1" id="Capa_1" xmlns="http://www.w3.org/2000/svg" xmlns:xlink="http://www.w3.org/1999/xlink" width="64px" height="64px" viewBox="0 0 454 454" xml:space="preserve" stroke="#375aff"><g id="SVGRepo_bgCarrier" stroke-width="0"></g><g id="SVGRepo_tracerCarrier" stroke-linecap="round" stroke-linejoin="round" stroke="#CCCCCC" stroke-width="90.8"> <g> <g> <path d="M228.062,154.507h-34.938v65.631h34.938c18.094,0,32.814-14.72,32.814-32.814 C260.877,169.23,246.156,154.507,228.062,154.507z"></path> <path d="M0,0v454h454V0H0z M228.062,279.648h-34.938v79.398h-59.512V94.952l94.451,0.043c50.908,0,92.325,41.418,92.325,92.328 C320.388,238.232,278.971,279.648,228.062,279.648z"></path> </g> </g> </g><g id="SVGRepo_iconCarrier"> <g> <g> <path d="M228.062,154.507h-34.938v65.631h34.938c18.094,0,32.814-14.72,32.814-32.814 C260.877,169.23,246.156,154.507,228.062,154.507z"></path> <path d="M0,0v454h454V0H0z M228.062,279.648h-34.938v79.398h-59.512V94.952l94.451,0.043c50.908,0,92.325,41.418,92.325,92.328 C320.388,238.232,278.971,279.648,228.062,279.648z"></path> </g> </g> </g></svg>